{"title":"Sleeping.Sluts.XXX.DVDRip.XviD-SLiEZE","uid":9038051,"size":1466525696,"categoryP":"porn","categoryS":"movies","magnet":"?xt=urn:btih:41be0af97929b18d2c8e21638283fa20a7df4efc&amp;dn=Sleeping.Sluts.XXX.DVDRip.XviD-SLiEZE&amp;tr=udp%3A%2F%2Ftracker.openbittorrent.com%3A80&amp;tr=udp%3A%2F%2Fopen.demonii.com%3A1337&amp;tr=udp%3A%2F%2Ftracker.coppersurfer.tk%3A6969&amp;tr=udp%3A%2F%2Fexodus.desync.com%3A6969","seeders":0,"leechers":1,"uploader":null,"files":2,"time":1381553421,"description":" &lt;a href=&quot;http://bayimg.com/HaaJPaafn&quot; rel=&quot;nofollow&quot; target=&quot;_NEW&quot;&gt;http://bayimg.com/HaaJPaafn&lt;/a&gt;\n\nSleeping Sluts XXX DVDRip XviD-SLiEZE\n\nSleeping Sluts is the story of five great-looking, stacked girls, who think about sex day and night. Sleeping Sluts They enjoy playing kinky role-modeling games with their boyfriends. Sleeping Sluts movie Playing out their fantasies, they pretend their studs are Peeping Toms as they go about their daily routines. Sleeping Sluts adult DVD Then it's time to fuck!\n\n\n\nVideo\nFormat: MPEG-4 Visual\nFormat profile: Streaming Video@L1\nFormat settings, BVOP: Yes\nFormat settings, QPel: No\nFormat settings, GMC: No warppoints\nFormat settings, Matrix: Default\nCodec ID: XVID\nCodec ID/Hint: XviD\nDuration: 1h 9mn\nBit rate: 1 258 Kbps\nWidth: 512 pixels\nHeight: 288 pixels\nDisplay aspect ratio: 16/9\nFrame rate: 29.970 fps\nResolution: 24 bits\nColorimetry: 4:2:0\nScan type: Progressive\nBits/(Pixel*Frame): 0.285\nStream size: 630 MiB (90%)\nWriting library: XviD 1.1.2 (UTC 2006-11-01)\n\nAudio\nFormat: MPEG Audio\nFormat version: Version 1\nFormat profile: Layer 3\nCodec ID: 55\nCodec ID/Hint: MP3\nDuration: 1h 9mn\nBit rate mode: Variable\nBit rate: 125 Kbps\nChannel(s): 2 channels\nSampling rate: 48.0 KHz\nResolution: 16 bits\nStream size: 62.6 MiB (9%)\nAlignment: Aligned on interleaves\nInterleave, duration: 24 ms (0.72 video frame)\nInterleave, preload duration: 470 ms ","torrent":{"xt":"urn:btih:41be0af97929b18d2c8e21638283fa20a7df4efc","amp;dn":"Sleeping.Sluts.XXX.DVDRip.XviD-SLiEZE","amp;tr":["udp%3A%2F%2Ftracker.openbittorrent.com%3A80","udp%3A%2F%2Fopen.demonii.com%3A1337","udp%3A%2F%2Ftracker.coppersurfer.tk%3A6969","udp%3A%2F%2Fexodus.desync.com%3A6969"],"infoHash":"41be0af97929b18d2c8e21638283fa20a7df4efc","infoHashBuffer":{"type":"Buffer","data":[65,190,10,249,121,41,177,141,44,142,33,99,130,131,250,32,167,223,78,252]},"announce":[],"urlList":[]}}